<svg xmlns="http://www.w3.org/2000/svg" xmlns:xlink="http://www.w3.org/1999/xlink" width="26.747" height="53" viewBox="0 0 26.747 53"><svg width="23.985" height="13.979" viewBox="0 0 23.985 13.979" id="arrow" y="0"><path fill-rule="evenodd" clip-rule="evenodd" fill="#FFF" d="M23.706.279a.952.952 0 0 0-1.348 0L11.992 11.582 1.626.281A.952.952 0 1 0 .279 1.628l10.792 11.766a.937.937 0 0 0 .917.585.94.94 0 0 0 .927-.587L23.706 1.626a.952.952 0 0 0 0-1.347z"></path></svg><svg width="26.747" height="38.997" viewBox="0 0 26.747 38.997" id="medal" y="14"><path fill-rule="evenodd" clip-rule="evenodd" fill="#2A1A0D" d="M22.585 15.899L24.352 0H2.414l1.765 15.884A13.363 13.363 0 0 0 0 25.599c0 7.397 5.987 13.398 13.374 13.398 7.386 0 13.373-6.001 13.373-13.398a13.36 13.36 0 0 0-4.162-9.7zM18.258 2.438h3.656l-1.669 11.679c-.63-.38-1.296-.703-1.987-.978V2.438zm-7.313 0h4.875v9.994a13.223 13.223 0 0 0-2.446-.234c-.831 0-1.641.084-2.429.231V2.438zm-2.437 0v10.694c-.691.273-1.358.596-1.989.975L4.852 2.438h3.656zm4.866 34.111c-6.026 0-10.931-4.914-10.931-10.95 0-6.039 4.904-10.954 10.931-10.954s10.93 4.915 10.93 10.954c0 6.036-4.904 10.95-10.93 10.95zM9.727 21.937h2.438v9.751h2.438V19.499H9.727v2.438z"></path></svg></svg>