<?xml version="1.0" encoding="utf-8"?>
<!-- Generator: Adobe Illustrator 16.0.0, SVG Export Plug-In . SVG Version: 6.00 Build 0)  -->
<!DOCTYPE svg PUBLIC "-//W3C//DTD SVG 1.1//EN" "http://www.w3.org/Graphics/SVG/1.1/DTD/svg11.dtd">
<svg version="1.1" id="Шар_1" xmlns="http://www.w3.org/2000/svg" xmlns:xlink="http://www.w3.org/1999/xlink" x="0px" y="0px"
	 width="23.985px" height="13.979px" viewBox="0 0 23.985 13.979" enable-background="new 0 0 23.985 13.979" xml:space="preserve">
<g>
	<g>
		<path fill-rule="evenodd" clip-rule="evenodd" fill="#FFFFFF" d="M23.706,0.279c-0.372-0.373-0.976-0.373-1.348,0L11.992,11.582
			L1.626,0.281c-0.373-0.372-0.975-0.372-1.347,0c-0.372,0.372-0.372,0.975,0,1.347l10.792,11.766
			c0.046,0.113,0.115,0.221,0.208,0.313c0.195,0.195,0.453,0.282,0.709,0.272c0.259,0.012,0.521-0.073,0.718-0.271
			c0.094-0.094,0.163-0.201,0.209-0.316L23.706,1.626C24.078,1.254,24.078,0.651,23.706,0.279z"/>
	</g>
</g>
</svg>
