<?xml version="1.0" encoding="utf-8"?>
<!-- Generator: Adobe Illustrator 16.0.0, SVG Export Plug-In . SVG Version: 6.00 Build 0)  -->
<!DOCTYPE svg PUBLIC "-//W3C//DTD SVG 1.1//EN" "http://www.w3.org/Graphics/SVG/1.1/DTD/svg11.dtd">
<svg version="1.1" id="Шар_1" xmlns="http://www.w3.org/2000/svg" xmlns:xlink="http://www.w3.org/1999/xlink" x="0px" y="0px"
	 width="26.747px" height="38.997px" viewBox="0 0 26.747 38.997" enable-background="new 0 0 26.747 38.997" xml:space="preserve">
<g>
	<g>
		<path fill-rule="evenodd" clip-rule="evenodd" fill="#2A1A0D" d="M22.585,15.899L24.352,0H2.414l1.765,15.884
			C1.61,18.326,0,21.771,0,25.599c0,7.397,5.987,13.398,13.374,13.398c7.386,0,13.373-6.001,13.373-13.398
			C26.747,21.778,25.145,18.34,22.585,15.899z M18.258,2.438h3.656l-1.669,11.679c-0.63-0.38-1.296-0.703-1.987-0.978V2.438z
			 M10.945,2.438h4.875v9.994c-0.793-0.149-1.609-0.234-2.446-0.234c-0.831,0-1.641,0.084-2.429,0.231V2.438z M8.508,2.438v10.694
			c-0.691,0.273-1.358,0.596-1.989,0.975L4.852,2.438H8.508z M13.374,36.549c-6.026,0-10.931-4.914-10.931-10.95
			c0-6.039,4.904-10.954,10.931-10.954s10.93,4.915,10.93,10.954C24.304,31.635,19.4,36.549,13.374,36.549z M9.727,21.937h2.438
			v9.751h2.438V19.499H9.727V21.937z"/>
	</g>
</g>
</svg>
